<svg id="SvgjsSvg1001" width="989.0125427246094" height="947.6874847412109" xmlns="http://www.w3.org/2000/svg" version="1.1" xmlns:xlink="http://www.w3.org/1999/xlink" xmlns:svgjs="http://svgjs.com/svgjs"><defs id="SvgjsDefs1002"><marker id="SvgjsMarker1182" markerWidth="14" markerHeight="10" refX="10" refY="5" viewBox="0 0 14 10" orient="auto" markerUnits="userSpaceOnUse" stroke-dasharray="0,0"><path id="SvgjsPath1183" d="M0,0 L14,5 L0,10 L0,0" fill="#ffcc99" stroke="#ffcc99" stroke-width="1"></path></marker><marker id="SvgjsMarker1186" markerWidth="14" markerHeight="10" refX="10" refY="5" viewBox="0 0 14 10" orient="auto" markerUnits="userSpaceOnUse" stroke-dasharray="0,0"><path id="SvgjsPath1187" d="M0,0 L14,5 L0,10 L0,0" fill="#99ff99" stroke="#99ff99" stroke-width="1"></path></marker><marker id="SvgjsMarker1217" markerWidth="14" markerHeight="10" refX="4" refY="5" viewBox="0 0 14 10" orient="auto" markerUnits="userSpaceOnUse" stroke-dasharray="0,0"><path id="SvgjsPath1218" d="M14,0 L0,5 L14,10 L14,0" fill="#66ffb3" stroke="#66ffb3" stroke-width="1"></path></marker><marker id="SvgjsMarker1221" markerWidth="14" markerHeight="10" refX="4" refY="5" viewBox="0 0 14 10" orient="auto" markerUnits="userSpaceOnUse" stroke-dasharray="0,0"><path id="SvgjsPath1222" d="M14,0 L0,5 L14,10 L14,0" fill="#66ffb3" stroke="#66ffb3" stroke-width="1"></path></marker><marker id="SvgjsMarker1225" markerWidth="14" markerHeight="10" refX="10" refY="5" viewBox="0 0 14 10" orient="auto" markerUnits="userSpaceOnUse" stroke-dasharray="0,0"><path id="SvgjsPath1226" d="M0,0 L14,5 L0,10 L0,0" fill="#99ff99" stroke="#99ff99" stroke-width="1"></path></marker><marker id="SvgjsMarker1253" markerWidth="14" markerHeight="10" refX="10" refY="5" viewBox="0 0 14 10" orient="auto" markerUnits="userSpaceOnUse" stroke-dasharray="0,0"><path id="SvgjsPath1254" d="M0,0 L14,5 L0,10 L0,0" fill="#9999ff" stroke="#9999ff" stroke-width="1"></path></marker><marker id="SvgjsMarker1257" markerWidth="14" markerHeight="10" refX="10" refY="5" viewBox="0 0 14 10" orient="auto" markerUnits="userSpaceOnUse" stroke-dasharray="0,0"><path id="SvgjsPath1258" d="M0,0 L14,5 L0,10 L0,0" fill="#9999ff" stroke="#9999ff" stroke-width="1"></path></marker></defs><rect id="svgbackgroundid" width="989.0125427246094" height="947.6874847412109" fill="#ffffff"></rect><g id="SvgjsG1009" transform="translate(69.01249694824219,701.6927321648125)"><path id="SvgjsPath1010" d="M 0 0L 855 0L 855 220.57289401992398L 0 220.57289401992398Z" stroke-dasharray="3,4" stroke="rgba(33,41,48,1)" stroke-width="2" fill-opacity="1" fill="#ffffff"></path><g id="SvgjsG1011"><text id="SvgjsText1012" font-family="微软雅黑" text-anchor="middle" font-size="13px" width="835px" fill="#323232" font-weight="400" align="middle" lineHeight="125%" anchor="middle" family="微软雅黑" size="13px" weight="400" font-style="" opacity="1" y="99.66144700996199" transform="rotate(0)"></text></g></g><g id="SvgjsG1013" transform="translate(69.01249694824219,227.06249237060547)"><path id="SvgjsPath1014" d="M 0 0L 855 0L 855 464.0000030994415L 0 464.0000030994415Z" stroke-dasharray="3,4" stroke="rgba(33,41,48,1)" stroke-width="2" fill-opacity="1" fill="#ffffff"></path><g id="SvgjsG1015"><text id="SvgjsText1016" font-family="微软雅黑" text-anchor="middle" font-size="13px" width="835px" fill="#323232" font-weight="400" align="middle" lineHeight="125%" anchor="middle" family="微软雅黑" size="13px" weight="400" font-style="" opacity="1" y="221.37500154972076" transform="rotate(0)"></text></g></g><g id="SvgjsG1017" transform="translate(69.01249694824219,138.83224957232437)"><path id="SvgjsPath1018" d="M 0 0L 855 0L 855 77.60000610351562L 0 77.60000610351562Z" stroke-dasharray="3,4" stroke="rgba(33,41,48,1)" stroke-width="2" fill-opacity="1" fill="#ffffff"></path><g id="SvgjsG1019"><text id="SvgjsText1020" font-family="微软雅黑" text-anchor="middle" font-size="13px" width="835px" fill="#323232" font-weight="400" align="middle" lineHeight="125%" anchor="middle" family="微软雅黑" size="13px" weight="400" font-style="" opacity="1" y="28.175003051757812" transform="rotate(0)"></text></g></g><g id="SvgjsG1021" transform="translate(176.41250610351562,590.2219207629962)"><path id="SvgjsPath1022" d="M 0 4Q 0 0 4 0L 550 0Q 554 0 554 4L 554 85.09487301272634Q 554 89.09487301272634 550 89.09487301272634L 4 89.09487301272634Q 0 89.09487301272634 0 85.09487301272634Z" stroke="none" fill-opacity="1" fill="#9999ff"></path><g id="SvgjsG1023"><text id="SvgjsText1024" font-family="微软雅黑" text-anchor="middle" font-size="13px" width="534px" fill="#323232" font-weight="400" align="middle" lineHeight="125%" anchor="middle" family="微软雅黑" size="13px" weight="400" font-style="" opacity="1" y="33.92243650636317" transform="rotate(0)"></text></g></g><g id="SvgjsG1025" transform="translate(77.91250610351562,558.5641528809267)"><path id="SvgjsPath1026" d="M 0 10.5L 691 10.5" stroke-dasharray="10,6" stroke="rgba(136,136,136,1)" stroke-width="1" fill="none"></path><path id="SvgjsPath1027" d="M 0 0L 691 0L 691 21L 0 21Z" stroke="none" fill="none"></path></g><g id="SvgjsG1028" transform="translate(77.91250610351562,420.0927382206444)"><path id="SvgjsPath1029" d="M 0 10.5L 691 10.5" stroke-dasharray="10,6" stroke="rgba(136,136,136,1)" stroke-width="1" fill="none"></path><path id="SvgjsPath1030" d="M 0 0L 691 0L 691 21L 0 21Z" stroke="none" fill="none"></path></g><g id="SvgjsG1031" transform="translate(176.41250610351574,150.63225262408218)"><path id="SvgjsPath1032" d="M 0 4Q 0 0 4 0L 549.9999999999998 0Q 553.9999999999998 0 553.9999999999998 4L 553.9999999999998 50Q 553.9999999999998 54 549.9999999999998 54L 4 54Q 0 54 0 50Z" stroke="none" fill-opacity="1" fill="#66ffb3"></path><g id="SvgjsG1033"><text id="SvgjsText1034" font-family="微软雅黑" text-anchor="middle" font-size="13px" width="534px" fill="#323232" font-weight="400" align="middle" lineHeight="125%" anchor="middle" family="微软雅黑" size="13px" weight="400" font-style="" opacity="1" y="16.375" transform="rotate(0)"></text></g></g><g id="SvgjsG1035" transform="translate(176.41250610351562,826.6350411031559)"><path id="SvgjsPath1036" d="M 0 4Q 0 0 4 0L 550 0Q 554 0 554 4L 554 74.57458563535897Q 554 78.57458563535897 550 78.57458563535897L 4 78.57458563535897Q 0 78.57458563535897 0 74.57458563535897Z" stroke="none" fill-opacity="1" fill="#99ccff"></path><g id="SvgjsG1037"><text id="SvgjsText1038" font-family="微软雅黑" text-anchor="middle" font-size="13px" width="534px" fill="#323232" font-weight="400" align="middle" lineHeight="125%" anchor="middle" family="微软雅黑" size="13px" weight="400" font-style="" opacity="1" y="28.662292817679486" transform="rotate(0)"></text></g></g><g id="SvgjsG1039" transform="translate(77.91250610351562,844.4223339208354)"><path id="SvgjsPath1040" d="M 0 0L 95 0L 95 43L 0 43Z" stroke="none" fill="none"></path><g id="SvgjsG1041"><text id="SvgjsText1042" font-family="微软雅黑" text-anchor="middle" font-size="13px" width="95px" fill="#323232" font-weight="400" align="middle" lineHeight="125%" anchor="middle" family="微软雅黑" size="13px" weight="400" font-style="" opacity="1" y="2.375" transform="rotate(0)"><tspan id="SvgjsTspan1043" dy="16" x="47.5"><tspan id="SvgjsTspan1044" style="text-decoration:;">Running </tspan></tspan><tspan id="SvgjsTspan1045" dy="16" x="47.5"><tspan id="SvgjsTspan1046" style="text-decoration:;">Environment</tspan></tspan></text></g></g><g id="SvgjsG1047" transform="translate(268.9125061035156,850.4223339208354)"><path id="SvgjsPath1048" d="M 0 0L 121 0L 121 31L 0 31Z" stroke="rgba(33,41,48,1)" stroke-width="2" fill-opacity="1" fill="#ffffff"></path><g id="SvgjsG1049"><text id="SvgjsText1050" font-family="微软雅黑" text-anchor="middle" font-size="13px" width="101px" fill="#323232" font-weight="400" align="middle" lineHeight="125%" anchor="middle" family="微软雅黑" size="13px" weight="400" font-style="" opacity="1" y="4.875" transform="rotate(0)"><tspan id="SvgjsTspan1051" dy="16" x="60.5"><tspan id="SvgjsTspan1052" style="text-decoration:;">Linux</tspan></tspan></text></g></g><g id="SvgjsG1053" transform="translate(551.5316916875967,850.4223339208354)"><path id="SvgjsPath1054" d="M 0 0L 121 0L 121 31L 0 31Z" stroke="rgba(33,41,48,1)" stroke-width="2" fill-opacity="1" fill="#ffffff"></path><g id="SvgjsG1055"><text id="SvgjsText1056" font-family="微软雅黑" text-anchor="middle" font-size="13px" width="101px" fill="#323232" font-weight="400" align="middle" lineHeight="125%" anchor="middle" family="微软雅黑" size="13px" weight="400" font-style="" opacity="1" y="4.875" transform="rotate(0)"><tspan id="SvgjsTspan1057" dy="16" x="60.5"><tspan id="SvgjsTspan1058" style="text-decoration:;">MacOS</tspan></tspan></text></g></g><g id="SvgjsG1059" transform="translate(407.9125061035157,850.4223339208354)"><path id="SvgjsPath1060" d="M 0 0L 121 0L 121 31L 0 31Z" stroke="rgba(33,41,48,1)" stroke-width="2" fill-opacity="1" fill="#ffffff"></path><g id="SvgjsG1061"><text id="SvgjsText1062" font-family="微软雅黑" text-anchor="middle" font-size="13px" width="101px" fill="#323232" font-weight="400" align="middle" lineHeight="125%" anchor="middle" family="微软雅黑" size="13px" weight="400" font-style="" opacity="1" y="4.875" transform="rotate(0)"><tspan id="SvgjsTspan1063" dy="16" x="60.5"><tspan id="SvgjsTspan1064" style="text-decoration:;">Windows</tspan></tspan></text></g></g><g id="SvgjsG1065" transform="translate(176.41250610351562,440.6200998837245)"><path id="SvgjsPath1066" d="M 0 4Q 0 0 4 0L 550 0Q 554 0 554 4L 554 109Q 554 113 550 113L 4 113Q 0 113 0 109Z" stroke="none" fill-opacity="1" fill="#99ff99"></path><g id="SvgjsG1067"><text id="SvgjsText1068" font-family="微软雅黑" text-anchor="middle" font-size="13px" width="534px" fill="#323232" font-weight="400" align="middle" lineHeight="125%" anchor="middle" family="微软雅黑" size="13px" weight="400" font-style="" opacity="1" y="45.875" transform="rotate(0)"></text></g></g><g id="SvgjsG1069" transform="translate(77.91250610351562,475.6200998837245)"><path id="SvgjsPath1070" d="M 0 0L 95 0L 95 43L 0 43Z" stroke="none" fill="none"></path><g id="SvgjsG1071"><text id="SvgjsText1072" font-family="微软雅黑" text-anchor="middle" font-size="13px" width="95px" fill="#323232" font-weight="400" align="middle" lineHeight="125%" anchor="middle" family="微软雅黑" size="13px" weight="400" font-style="" opacity="1" y="10.875" transform="rotate(0)"><tspan id="SvgjsTspan1073" dy="16" x="47.5"><tspan id="SvgjsTspan1074" style="text-decoration:;">Data Model</tspan></tspan></text></g></g><g id="SvgjsG1075" transform="translate(176.41250610351574,317.8624954223633)"><path id="SvgjsPath1076" d="M 0 4Q 0 0 4 0L 549.9999999999998 0Q 553.9999999999998 0 553.9999999999998 4L 553.9999999999998 94Q 553.9999999999998 98 549.9999999999998 98L 4 98Q 0 98 0 94Z" stroke="none" fill-opacity="1" fill="#99ff99"></path><g id="SvgjsG1077"><text id="SvgjsText1078" font-family="微软雅黑" text-anchor="middle" font-size="13px" width="534px" fill="#323232" font-weight="400" align="middle" lineHeight="125%" anchor="middle" family="微软雅黑" size="13px" weight="400" font-style="" opacity="1" y="38.375" transform="rotate(0)"></text></g></g><g id="SvgjsG1079" transform="translate(76.91250610351562,345.3624954223633)"><path id="SvgjsPath1080" d="M 0 0L 95 0L 95 43L 0 43Z" stroke="none" fill="none"></path><g id="SvgjsG1081"><text id="SvgjsText1082" font-family="微软雅黑" text-anchor="middle" font-size="13px" width="95px" fill="#323232" font-weight="400" align="middle" lineHeight="125%" anchor="middle" family="微软雅黑" size="13px" weight="400" font-style="" opacity="1" y="10.875" transform="rotate(0)"><tspan id="SvgjsTspan1083" dy="16" x="47.5"><tspan id="SvgjsTspan1084" style="text-decoration:;">Business</tspan></tspan></text></g></g><g id="SvgjsG1085" transform="translate(262.4125061035157,329.7067118402738)"><path id="SvgjsPath1086" d="M 0 0L 116.57765667574932 0L 116.57765667574932 31L 0 31Z" stroke="rgba(33,41,48,1)" stroke-width="2" fill-opacity="1" fill="#ffffff"></path><g id="SvgjsG1087"><text id="SvgjsText1088" font-family="微软雅黑" text-anchor="middle" font-size="13px" width="97px" fill="#323232" font-weight="400" align="middle" lineHeight="125%" anchor="middle" family="微软雅黑" size="13px" weight="400" font-style="" opacity="1" y="4.875" transform="rotate(0)"><tspan id="SvgjsTspan1089" dy="16" x="58.5"><tspan id="SvgjsTspan1090" style="text-decoration:;">Add todo</tspan></tspan></text></g></g><g id="SvgjsG1091" transform="translate(395.65228811701326,329.7067118402738)"><path id="SvgjsPath1092" d="M 0 0L 116.57765667574932 0L 116.57765667574932 31L 0 31Z" stroke="rgba(33,41,48,1)" stroke-width="2" fill-opacity="1" fill="#ffffff"></path><g id="SvgjsG1093"><text id="SvgjsText1094" font-family="微软雅黑" text-anchor="middle" font-size="13px" width="97px" fill="#323232" font-weight="400" align="middle" lineHeight="125%" anchor="middle" family="微软雅黑" size="13px" weight="400" font-style="" opacity="1" y="4.875" transform="rotate(0)"><tspan id="SvgjsTspan1095" dy="16" x="58.5"><tspan id="SvgjsTspan1096" style="text-decoration:;">Complete todo</tspan></tspan></text></g></g><g id="SvgjsG1097" transform="translate(319.4125061035156,503.6337807152646)"><path id="SvgjsPath1098" d="M 0 0L 112 0L 112 37L 0 37Z" stroke="rgba(33,41,48,1)" stroke-width="2" fill-opacity="1" fill="#ffffff"></path><g id="SvgjsG1099"><text id="SvgjsText1100" font-family="微软雅黑" text-anchor="middle" font-size="13px" width="92px" fill="#323232" font-weight="400" align="middle" lineHeight="125%" anchor="middle" family="微软雅黑" size="13px" weight="400" font-style="" opacity="1" y="7.875" transform="rotate(0)"><tspan id="SvgjsTspan1101" dy="16" x="56"><tspan id="SvgjsTspan1102" style="text-decoration:;">Serialization</tspan></tspan></text></g></g><g id="SvgjsG1103" transform="translate(527.8348494277664,329.7067118402738)"><path id="SvgjsPath1104" d="M 0 0L 116.57765667574932 0L 116.57765667574932 31L 0 31Z" stroke="rgba(33,41,48,1)" stroke-width="2" fill-opacity="1" fill="#ffffff"></path><g id="SvgjsG1105"><text id="SvgjsText1106" font-family="微软雅黑" text-anchor="middle" font-size="13px" width="97px" fill="#323232" font-weight="400" align="middle" lineHeight="125%" anchor="middle" family="微软雅黑" size="13px" weight="400" font-style="" opacity="1" y="4.875" transform="rotate(0)"><tspan id="SvgjsTspan1107" dy="16" x="58.5"><tspan id="SvgjsTspan1108" style="text-decoration:;fill: rgb(50, 50, 50);">Add to recycle bin</tspan></tspan></text></g></g><g id="SvgjsG1109" transform="translate(262.4125061035157,373.0182790044528)"><path id="SvgjsPath1110" d="M 0 0L 116.57765667574932 0L 116.57765667574932 31L 0 31Z" stroke="rgba(33,41,48,1)" stroke-width="2" fill-opacity="1" fill="#ffffff"></path><g id="SvgjsG1111"><text id="SvgjsText1112" font-family="微软雅黑" text-anchor="middle" font-size="13px" width="97px" fill="#323232" font-weight="400" align="middle" lineHeight="125%" anchor="middle" family="微软雅黑" size="13px" weight="400" font-style="" opacity="1" y="4.875" transform="rotate(0)"><tspan id="SvgjsTspan1113" dy="16" x="58.5"><tspan id="SvgjsTspan1114" style="text-decoration:;">Clear recycle bin</tspan></tspan></text></g></g><g id="SvgjsG1115" transform="translate(395.65228811701326,373.0182790044528)"><path id="SvgjsPath1116" d="M 0 0L 116.57765667574932 0L 116.57765667574932 31L 0 31Z" stroke="rgba(33,41,48,1)" stroke-width="2" fill-opacity="1" fill="#ffffff"></path><g id="SvgjsG1117"><text id="SvgjsText1118" font-family="微软雅黑" text-anchor="middle" font-size="13px" width="97px" fill="#323232" font-weight="400" align="middle" lineHeight="125%" anchor="middle" family="微软雅黑" size="13px" weight="400" font-style="" opacity="1" y="4.875" transform="rotate(0)"><tspan id="SvgjsTspan1119" dy="16" x="58.5"><tspan id="SvgjsTspan1120" style="text-decoration:;">List all todos</tspan></tspan></text></g></g><g id="SvgjsG1121" transform="translate(527.8348494277664,373.0182790044528)"><path id="SvgjsPath1122" d="M 0 0L 116.57765667574932 0L 116.57765667574932 31L 0 31Z" stroke="rgba(33,41,48,1)" stroke-width="2" fill-opacity="1" fill="#ffffff"></path><g id="SvgjsG1123"><text id="SvgjsText1124" font-family="微软雅黑" text-anchor="middle" font-size="13px" width="97px" fill="#323232" font-weight="700" align="middle" lineHeight="125%" anchor="middle" family="微软雅黑" size="13px" weight="700" font-style="" opacity="1" y="4.875" transform="rotate(0)"><tspan id="SvgjsTspan1125" dy="16" x="58.5"><tspan id="SvgjsTspan1126" style="text-decoration:;">… …</tspan></tspan></text></g></g><g id="SvgjsG1127" transform="translate(76.91250610351562,156.13225262408218)"><path id="SvgjsPath1128" d="M 0 0L 95 0L 95 43L 0 43Z" stroke="none" fill="none"></path><g id="SvgjsG1129"><text id="SvgjsText1130" font-family="微软雅黑" text-anchor="middle" font-size="13px" width="95px" fill="#323232" font-weight="400" align="middle" lineHeight="125%" anchor="middle" family="微软雅黑" size="13px" weight="400" font-style="" opacity="1" y="2.375" transform="rotate(0)"><tspan id="SvgjsTspan1131" dy="16" x="47.5"><tspan id="SvgjsTspan1132" style="text-decoration:;">Command Line </tspan></tspan><tspan id="SvgjsTspan1133" dy="16" x="47.5"><tspan id="SvgjsTspan1134" style="text-decoration:;">Interface</tspan></tspan></text></g></g><g id="SvgjsG1135" transform="translate(432.579172770182,162.1322526240822)"><path id="SvgjsPath1136" d="M 0 0L 130.61918558408104 0L 130.61918558408104 31L 0 31Z" stroke="rgba(33,41,48,1)" stroke-width="2" fill-opacity="1" fill="#ffffff"></path><g id="SvgjsG1137"><text id="SvgjsText1138" font-family="微软雅黑" text-anchor="middle" font-size="13px" width="111px" fill="#323232" font-weight="400" align="middle" lineHeight="125%" anchor="middle" family="微软雅黑" size="13px" weight="400" font-style="" opacity="1" y="4.875" transform="rotate(0)"><tspan id="SvgjsTspan1139" dy="16" x="65.5"><tspan id="SvgjsTspan1140" style="text-decoration:;">Call library Interface</tspan></tspan></text></g></g><g id="SvgjsG1141" transform="translate(326.91250610351557,162.1322526240822)"><path id="SvgjsPath1142" d="M 0 0L 95 0L 95 31L 0 31Z" stroke="rgba(33,41,48,1)" stroke-width="2" fill-opacity="1" fill="#ffffff"></path><g id="SvgjsG1143"><text id="SvgjsText1144" font-family="微软雅黑" text-anchor="middle" font-size="13px" width="75px" fill="#323232" font-weight="400" align="middle" lineHeight="125%" anchor="middle" family="微软雅黑" size="13px" weight="400" font-style="" opacity="1" y="4.875" transform="rotate(0)"><tspan id="SvgjsTspan1145" dy="16" x="47.5"><tspan id="SvgjsTspan1146" style="text-decoration:;">help docs</tspan></tspan></text></g></g><g id="SvgjsG1147" transform="translate(183.41250228881842,162.1322526240822)"><path id="SvgjsPath1148" d="M 0 0L 132.50000381469727 0L 132.50000381469727 31L 0 31Z" stroke="rgba(33,41,48,1)" stroke-width="2" fill-opacity="1" fill="#ffffff"></path><g id="SvgjsG1149"><text id="SvgjsText1150" font-family="微软雅黑" text-anchor="middle" font-size="13px" width="113px" fill="#323232" font-weight="400" align="middle" lineHeight="125%" anchor="middle" family="微软雅黑" size="13px" weight="400" font-style="" opacity="1" y="4.875" transform="rotate(0)"><tspan id="SvgjsTspan1151" dy="16" x="66.5"><tspan id="SvgjsTspan1152" style="text-decoration:;">CLI arguments parse</tspan></tspan></text></g></g><g id="SvgjsG1153" transform="translate(572.9125061035156,162.13225262408218)"><path id="SvgjsPath1154" d="M 0 0L 95 0L 95 31L 0 31Z" stroke="rgba(33,41,48,1)" stroke-width="2" fill-opacity="1" fill="#ffffff"></path><g id="SvgjsG1155"><text id="SvgjsText1156" font-family="微软雅黑" text-anchor="middle" font-size="13px" width="75px" fill="#323232" font-weight="400" align="middle" lineHeight="125%" anchor="middle" family="微软雅黑" size="13px" weight="400" font-style="" opacity="1" y="4.875" transform="rotate(0)"><tspan id="SvgjsTspan1157" dy="16" x="47.5"><tspan id="SvgjsTspan1158" style="text-decoration:;">Error handle</tspan></tspan></text></g></g><g id="SvgjsG1159" transform="translate(77.91250610351562,296.0927382206444)"><path id="SvgjsPath1160" d="M 0 10.5L 691 10.5" stroke-dasharray="10,6" stroke="rgba(136,136,136,1)" stroke-width="1" fill="none"></path><path id="SvgjsPath1161" d="M 0 0L 691 0L 691 21L 0 21Z" stroke="none" fill="none"></path></g><g id="SvgjsG1162" transform="translate(76.91250610351562,241.36249542236328)"><path id="SvgjsPath1163" d="M 0 0L 95 0L 95 43L 0 43Z" stroke="none" fill="none"></path><g id="SvgjsG1164"><text id="SvgjsText1165" font-family="微软雅黑" text-anchor="middle" font-size="13px" width="95px" fill="#323232" font-weight="400" align="middle" lineHeight="125%" anchor="middle" family="微软雅黑" size="13px" weight="400" font-style="" opacity="1" y="2.375" transform="rotate(0)"><tspan id="SvgjsTspan1166" dy="16" x="47.5"><tspan id="SvgjsTspan1167" style="text-decoration:;">Application </tspan></tspan><tspan id="SvgjsTspan1168" dy="16" x="47.5"><tspan id="SvgjsTspan1169" style="text-decoration:;">Interface</tspan></tspan></text></g></g><g id="SvgjsG1170" transform="translate(176.41250610351574,233.86249542236328)"><path id="SvgjsPath1171" d="M 0 4Q 0 0 4 0L 549.9999999999998 0Q 553.9999999999998 0 553.9999999999998 4L 553.9999999999998 54Q 553.9999999999998 58 549.9999999999998 58L 4 58Q 0 58 0 54Z" stroke="none" fill-opacity="1" fill="#ffcc99"></path><g id="SvgjsG1172"><text id="SvgjsText1173" font-family="微软雅黑" text-anchor="start" font-size="13px" width="534px" fill="#323232" font-weight="400" align="middle" lineHeight="125%" anchor="start" family="微软雅黑" size="13px" weight="400" font-style="" opacity="1" y="18.375" transform="rotate(0)"></text></g></g><g id="SvgjsG1174" transform="translate(319.41250610351574,247.36249542236322)"><path id="SvgjsPath1175" d="M 0 0L 255.87844753020943 0L 255.87844753020943 31L 0 31Z" stroke="rgba(33,41,48,1)" stroke-width="2" fill-opacity="1" fill="#ffffff"></path><g id="SvgjsG1176"><text id="SvgjsText1177" font-family="微软雅黑" text-anchor="middle" font-size="13px" width="236px" fill="#323232" font-weight="400" align="middle" lineHeight="125%" anchor="middle" family="微软雅黑" size="13px" weight="400" font-style="" opacity="1" y="4.875" transform="rotate(0)"><tspan id="SvgjsTspan1178" dy="16" x="128"><tspan id="SvgjsTspan1179" style="text-decoration:;fill: rgb(60, 64, 67);">Expose interfaces through the Rust library</tspan></tspan></text></g></g><g id="SvgjsG1180"><path id="SvgjsPath1181" d="M453.4125061035156 291.8624954223633L453.4125061035156 304.8624954223633L453.4125061035156 304.8624954223633L453.4125061035156 315.26249542236326" stroke="#ffcc99" stroke-width="2" fill="none" marker-end="url(#SvgjsMarker1182)"></path></g><g id="SvgjsG1184"><path id="SvgjsPath1185" d="M452.81705610190943 415.8624954223633L452.81705610190943 428.2412976530439L453.4125061035156 428.2412976530439L453.4125061035156 438.02009988372447" stroke="#99ff99" stroke-width="2" fill="none" marker-end="url(#SvgjsMarker1186)"></path></g><g id="SvgjsG1188" transform="translate(77.91250610351562,613.2693572693594)"><path id="SvgjsPath1189" d="M 0 0L 95 0L 95 43L 0 43Z" stroke="none" fill="none"></path><g id="SvgjsG1190"><text id="SvgjsText1191" font-family="微软雅黑" text-anchor="middle" font-size="13px" width="95px" fill="#323232" font-weight="400" align="middle" lineHeight="125%" anchor="middle" family="微软雅黑" size="13px" weight="400" font-style="" opacity="1" y="10.875" transform="rotate(0)"><tspan id="SvgjsTspan1192" dy="16" x="47.5"><tspan id="SvgjsTspan1193" style="text-decoration:;">Model Mapping</tspan></tspan></text></g></g><g id="SvgjsG1194" transform="translate(77.91250610351562,792.2651117669707)"><path id="SvgjsPath1195" d="M 0 10.5L 691 10.5" stroke-dasharray="10,6" stroke="rgba(136,136,136,1)" stroke-width="1" fill="none"></path><path id="SvgjsPath1196" d="M 0 0L 691 0L 691 21L 0 21Z" stroke="none" fill="none"></path></g><g id="SvgjsG1197" transform="translate(319.4125061035156,453.8632594679545)"><path id="SvgjsPath1198" d="M 0 0L 112 0L 112 37L 0 37Z" stroke="rgba(33,41,48,1)" stroke-width="2" fill-opacity="1" fill="#ffffff"></path><g id="SvgjsG1199"><text id="SvgjsText1200" font-family="微软雅黑" text-anchor="middle" font-size="13px" width="92px" fill="#323232" font-weight="400" align="middle" lineHeight="125%" anchor="middle" family="微软雅黑" size="13px" weight="400" font-style="" opacity="1" y="7.875" transform="rotate(0)"><tspan id="SvgjsTspan1201" dy="16" x="56"><tspan id="SvgjsTspan1202" style="text-decoration:;">Data Structure</tspan></tspan></text></g></g><g id="SvgjsG1203" transform="translate(474.9125061035156,453.8632594679545)"><path id="SvgjsPath1204" d="M 0 0L 112 0L 112 37L 0 37Z" stroke="rgba(33,41,48,1)" stroke-width="2" fill-opacity="1" fill="#ffffff"></path><g id="SvgjsG1205"><text id="SvgjsText1206" font-family="微软雅黑" text-anchor="middle" font-size="13px" width="92px" fill="#323232" font-weight="400" align="middle" lineHeight="125%" anchor="middle" family="微软雅黑" size="13px" weight="400" font-style="" opacity="1" y="7.875" transform="rotate(0)"><tspan id="SvgjsTspan1207" dy="16" x="56"><tspan id="SvgjsTspan1208" style="text-decoration:;">Display Format</tspan></tspan></text></g></g><g id="SvgjsG1209" transform="translate(474.9125061035156,503.6337807152646)"><path id="SvgjsPath1210" d="M 0 0L 112 0L 112 37L 0 37Z" stroke="rgba(33,41,48,1)" stroke-width="2" fill-opacity="1" fill="#ffffff"></path><g id="SvgjsG1211"><text id="SvgjsText1212" font-family="微软雅黑" text-anchor="middle" font-size="13px" width="92px" fill="#323232" font-weight="400" align="middle" lineHeight="125%" anchor="middle" family="微软雅黑" size="13px" weight="400" font-style="" opacity="1" y="7.875" transform="rotate(0)"><tspan id="SvgjsTspan1213" dy="16" x="56"><tspan id="SvgjsTspan1214" style="text-decoration:;">Deserialization</tspan></tspan></text></g></g><g id="SvgjsG1215"><path id="SvgjsPath1216" d="M342.0124969482422 231.46249237060547L342.0124969482422 219.06249237060547L342.0124969482422 219.06249237060547L342.0124969482422 204.06249237060547" stroke="#66ffb3" stroke-width="2" fill="none" marker-start="url(#SvgjsMarker1217)"></path></g><g id="SvgjsG1219"><path id="SvgjsPath1220" d="M529.8064029911595 226.83224957232437L529.8064029911595 215.73225109820328L529.8064029911595 215.73225109820328L529.8064029911595 204.63225262408218" stroke="#66ffb3" stroke-width="2" fill="none" marker-start="url(#SvgjsMarker1221)"></path></g><g id="SvgjsG1223"><path id="SvgjsPath1224" d="M453.4125061035156 553.6200998837246L453.4125061035156 571.9210103233604L453.4125061035156 571.9210103233604L453.4125061035156 587.6219207629962" stroke="#99ff99" stroke-width="2" fill="none" marker-end="url(#SvgjsMarker1225)"></path></g><g id="SvgjsG1227" transform="translate(784.0124969482422,157.63225262408218)"><path id="SvgjsPath1228" d="M 0 0L 129 0L 129 40L 0 40Z" stroke="none" fill="none"></path><g id="SvgjsG1229"><text id="SvgjsText1230" font-family="微软雅黑" text-anchor="middle" font-size="20px" width="129px" fill="#4669ea" font-weight="700" align="middle" lineHeight="125%" anchor="middle" family="微软雅黑" size="20px" weight="700" font-style="" opacity="1" y="2" transform="rotate(0)"><tspan id="SvgjsTspan1231" dy="25" x="64.5"><tspan id="SvgjsTspan1232" style="text-decoration:;">binary crate</tspan></tspan></text></g></g><g id="SvgjsG1233" transform="translate(176.41250610351562,712.673967113084)"><path id="SvgjsPath1234" d="M 0 4Q 0 0 4 0L 550 0Q 554 0 554 4L 554 75.8070344668414Q 554 79.8070344668414 550 79.8070344668414L 4 79.8070344668414Q 0 79.8070344668414 0 75.8070344668414Z" stroke="none" fill-opacity="1" fill="#9999ff"></path><g id="SvgjsG1235"><text id="SvgjsText1236" font-family="微软雅黑" text-anchor="middle" font-size="13px" width="534px" fill="#323232" font-weight="400" align="middle" lineHeight="125%" anchor="middle" family="微软雅黑" size="13px" weight="400" font-style="" opacity="1" y="29.2785172334207" transform="rotate(0)"></text></g></g><g id="SvgjsG1237" transform="translate(81.41250610351562,729.8818687991159)"><path id="SvgjsPath1238" d="M 0 0L 95 0L 95 43L 0 43Z" stroke="none" fill="none"></path><g id="SvgjsG1239"><text id="SvgjsText1240" font-family="微软雅黑" text-anchor="middle" font-size="13px" width="95px" fill="#323232" font-weight="400" align="middle" lineHeight="125%" anchor="middle" family="微软雅黑" size="13px" weight="400" font-style="" opacity="1" y="10.875" transform="rotate(0)"><tspan id="SvgjsTspan1241" dy="16" x="47.5"><tspan id="SvgjsTspan1242" style="text-decoration:;">Data Store</tspan></tspan></text></g></g><g id="SvgjsG1243" transform="translate(351.9625129699707,723.4149693116303)"><path id="SvgjsPath1244" d="M 0 0L 186.89998626708984 0L 202.89998626708984 16L 202.89998626708984 57.93379897497107L 0 57.93379897497107L 0 0Z" stroke="none" fill-opacity="1" fill="#fff7bc"></path><path id="SvgjsPath1245" d="M 186.89998626708984 0L 186.89998626708984 16L 202.89998626708984 16Z" stroke="none" fill-opacity="1" fill="#e4d089"></path><path id="SvgjsPath1246" d="M 0 0L 186.89998626708984 0L 202.89998626708984 16L 202.89998626708984 57.93379897497107L 0 57.93379897497107L 0 0Z" stroke="none" fill="none"></path><g id="SvgjsG1247"><text id="SvgjsText1248" font-family="微软雅黑" text-anchor="middle" font-size="13px" width="183px" fill="#323232" font-weight="400" align="middle" lineHeight="125%" anchor="middle" family="微软雅黑" size="13px" weight="400" font-style="" opacity="1" y="18.341899487485534" transform="rotate(0)"><tspan id="SvgjsTspan1249" dy="16" x="101.5"><tspan id="SvgjsTspan1250" style="text-decoration:;">Local CSV File</tspan></tspan></text></g></g><g id="SvgjsG1251"><path id="SvgjsPath1252" d="M453.4125061035156 679.3167937757225L453.4125061035156 695.9953804444033L453.4125061035156 695.9953804444033L453.4125061035156 710.073967113084" stroke="#9999ff" stroke-width="2" fill="none" marker-end="url(#SvgjsMarker1253)"></path></g><g id="SvgjsG1255"><path id="SvgjsPath1256" d="M453.4125061035156 792.4810015799254L453.4125061035156 809.5580213415407L453.4125061035156 809.5580213415407L453.4125061035156 824.0350411031559" stroke="#9999ff" stroke-width="2" fill="none" marker-end="url(#SvgjsMarker1257)"></path></g><g id="SvgjsG1259" transform="translate(784.0124969482422,441.0927382206444)"><path id="SvgjsPath1260" d="M 0 0L 129 0L 129 40L 0 40Z" stroke="none" fill="none"></path><g id="SvgjsG1261"><text id="SvgjsText1262" font-family="微软雅黑" text-anchor="middle" font-size="20px" width="129px" fill="#4669ea" font-weight="700" align="middle" lineHeight="125%" anchor="middle" family="微软雅黑" size="20px" weight="700" font-style="" opacity="1" y="2" transform="rotate(0)"><tspan id="SvgjsTspan1263" dy="25" x="64.5"><tspan id="SvgjsTspan1264" style="text-decoration:;">library crate</tspan></tspan></text></g></g><g id="SvgjsG1265" transform="translate(788.0124969482422,782.7651117669707)"><path id="SvgjsPath1266" d="M 0 0L 129 0L 129 40L 0 40Z" stroke="none" fill="none"></path><g id="SvgjsG1267"><text id="SvgjsText1268" font-family="微软雅黑" text-anchor="middle" font-size="20px" width="129px" fill="#4669ea" font-weight="700" align="middle" lineHeight="125%" anchor="middle" family="微软雅黑" size="20px" weight="700" font-style="" opacity="1" y="2" transform="rotate(0)"><tspan id="SvgjsTspan1269" dy="25" x="64.5"><tspan id="SvgjsTspan1270" style="text-decoration:;">OS</tspan></tspan></text></g></g><g id="SvgjsG1271" transform="translate(636.9125061035156,157.63225262408218)"><path id="SvgjsPath1272" d="M 0 0L 129 0L 129 40L 0 40Z" stroke="none" fill="none"></path><g id="SvgjsG1273"><text id="SvgjsText1274" font-family="微软雅黑" text-anchor="middle" font-size="16px" width="129px" fill="#000000" font-weight="400" align="middle" lineHeight="125%" anchor="middle" family="微软雅黑" size="16px" weight="400" font-style="" opacity="1" y="6" transform="rotate(0)"><tspan id="SvgjsTspan1275" dy="20" x="64.5"><tspan id="SvgjsTspan1276" style="text-decoration:;">main.rs</tspan></tspan></text></g></g><g id="SvgjsG1277" transform="translate(639.9125061035156,242.86249542236328)"><path id="SvgjsPath1278" d="M 0 0L 129 0L 129 40L 0 40Z" stroke="none" fill="none"></path><g id="SvgjsG1279"><text id="SvgjsText1280" font-family="微软雅黑" text-anchor="middle" font-size="16px" width="129px" fill="#000000" font-weight="400" align="middle" lineHeight="125%" anchor="middle" family="微软雅黑" size="16px" weight="400" font-style="" opacity="1" y="6" transform="rotate(0)"><tspan id="SvgjsTspan1281" dy="20" x="64.5"><tspan id="SvgjsTspan1282" style="text-decoration:;">lib.rs</tspan></tspan></text></g></g><g id="SvgjsG1283" transform="translate(628.4125061035156,346.8624954223633)"><path id="SvgjsPath1284" d="M 0 0L 129 0L 129 40L 0 40Z" stroke="none" fill="none"></path><g id="SvgjsG1285"><text id="SvgjsText1286" font-family="微软雅黑" text-anchor="middle" font-size="16px" width="129px" fill="#000000" font-weight="400" align="middle" lineHeight="125%" anchor="middle" family="微软雅黑" size="16px" weight="400" font-style="" opacity="1" y="6" transform="rotate(0)"><tspan id="SvgjsTspan1287" dy="20" x="64.5"><tspan id="SvgjsTspan1288" style="text-decoration:;">service.rs</tspan></tspan></text></g></g><g id="SvgjsG1289" transform="translate(628.4125061035156,477.1200998837245)"><path id="SvgjsPath1290" d="M 0 0L 129 0L 129 40L 0 40Z" stroke="none" fill="none"></path><g id="SvgjsG1291"><text id="SvgjsText1292" font-family="微软雅黑" text-anchor="middle" font-size="16px" width="129px" fill="#000000" font-weight="400" align="middle" lineHeight="125%" anchor="middle" family="微软雅黑" size="16px" weight="400" font-style="" opacity="1" y="6" transform="rotate(0)"><tspan id="SvgjsTspan1293" dy="20" x="64.5"><tspan id="SvgjsTspan1294" style="text-decoration:;">model.rs</tspan></tspan></text></g></g><g id="SvgjsG1295" transform="translate(628.4125061035156,617.0268756158042)"><path id="SvgjsPath1296" d="M 0 0L 129 0L 129 40L 0 40Z" stroke="none" fill="none"></path><g id="SvgjsG1297"><text id="SvgjsText1298" font-family="微软雅黑" text-anchor="middle" font-size="16px" width="129px" fill="#000000" font-weight="400" align="middle" lineHeight="125%" anchor="middle" family="微软雅黑" size="16px" weight="400" font-style="" opacity="1" y="6" transform="rotate(0)"><tspan id="SvgjsTspan1299" dy="20" x="64.5"><tspan id="SvgjsTspan1300" style="text-decoration:;">storage.rs</tspan></tspan></text></g></g><g id="SvgjsG1301" transform="translate(474.9125061035156,618.5268756158042)"><path id="SvgjsPath1302" d="M 0 0L 112 0L 112 37L 0 37Z" stroke="rgba(33,41,48,1)" stroke-width="2" fill-opacity="1" fill="#ffffff"></path><g id="SvgjsG1303"><text id="SvgjsText1304" font-family="微软雅黑" text-anchor="middle" font-size="13px" width="92px" fill="#323232" font-weight="400" align="middle" lineHeight="125%" anchor="middle" family="微软雅黑" size="13px" weight="400" font-style="" opacity="1" y="7.875" transform="rotate(0)"><tspan id="SvgjsTspan1305" dy="16" x="56"><tspan id="SvgjsTspan1306" style="text-decoration:;">File I/O</tspan></tspan></text></g></g><g id="SvgjsG1307" transform="translate(319.4125061035156,618.5268756158042)"><path id="SvgjsPath1308" d="M 0 0L 112 0L 112 37L 0 37Z" stroke="rgba(33,41,48,1)" stroke-width="2" fill-opacity="1" fill="#ffffff"></path><g id="SvgjsG1309"><text id="SvgjsText1310" font-family="微软雅黑" text-anchor="middle" font-size="13px" width="92px" fill="#323232" font-weight="400" align="middle" lineHeight="125%" anchor="middle" family="微软雅黑" size="13px" weight="400" font-style="" opacity="1" y="7.875" transform="rotate(0)"><tspan id="SvgjsTspan1311" dy="16" x="56"><tspan id="SvgjsTspan1312" style="text-decoration:;">ORM</tspan></tspan></text></g></g><g id="SvgjsG1313" transform="translate(69.01249694824219,74.34153338451233)"><path id="SvgjsPath1314" d="M 0 0L 855 0L 855 53.86047949304657L 0 53.86047949304657Z" stroke="rgba(33,41,48,1)" stroke-width="2" fill-opacity="1" fill="#f6bbdb"></path><g id="SvgjsG1315"><text id="SvgjsText1316" font-family="微软雅黑" text-anchor="middle" font-size="30px" width="835px" fill="#314aa4" font-weight="400" align="middle" lineHeight="125%" anchor="middle" family="微软雅黑" size="30px" weight="400" font-style="" opacity="1" y="1.1802397465232843" transform="rotate(0)"><tspan id="SvgjsTspan1317" dy="37" x="427.5"><tspan id="SvgjsTspan1318" style="text-decoration:;">Learn Rust by 500 lines code: https://github.com/cuppar/rtd</tspan></tspan></text></g></g><g id="SvgjsG1319" transform="translate(875.0124969482422,25.50906723840359)"><path id="SvgjsPath1320" d="M 0 44.5C 0 -14.833333333333334 89 -14.833333333333334 89 44.5C 89 103.83333333333333 0 103.83333333333333 0 44.5Z" stroke="rgba(33,41,48,1)" stroke-width="2" fill-opacity="1" fill="#b7eaeb"></path><g id="SvgjsG1321"><text id="SvgjsText1322" font-family="微软雅黑" text-anchor="middle" font-size="20px" width="69px" fill="#000000" font-weight="400" align="middle" lineHeight="125%" anchor="middle" family="微软雅黑" size="20px" weight="400" font-style="" opacity="1" y="14" transform="rotate(0)"><tspan id="SvgjsTspan1323" dy="25" x="44.5"><tspan id="SvgjsTspan1324" style="text-decoration:;fill: rgb(60, 64, 67);">Give me </tspan></tspan><tspan id="SvgjsTspan1325" dy="25" x="44.5"><tspan id="SvgjsTspan1326" style="text-decoration:;fill: rgb(60, 64, 67);">a star!</tspan></tspan></text></g></g><g id="SvgjsG1327" transform="translate(25.012496948242188,24.99125886100296)"><path id="SvgjsPath1328" d="M 0 45.01780837740063C 0 -15.00593612580021 92 -15.00593612580021 92 45.01780837740063C 92 105.04155288060146 0 105.04155288060146 0 45.01780837740063Z" stroke="rgba(33,41,48,1)" stroke-width="2" fill-opacity="1" fill="#b7eaeb"></path><g id="SvgjsG1329"><text id="SvgjsText1330" font-family="微软雅黑" text-anchor="middle" font-size="20px" width="72px" fill="#000000" font-weight="400" align="middle" lineHeight="125%" anchor="middle" family="微软雅黑" size="20px" weight="400" font-style="" opacity="1" y="14.517808377400627" transform="rotate(0)"><tspan id="SvgjsTspan1331" dy="25" x="46"><tspan id="SvgjsTspan1332" style="text-decoration:;">English/</tspan></tspan><tspan id="SvgjsTspan1333" dy="25" x="46"><tspan id="SvgjsTspan1334" style="text-decoration:;">Chinese</tspan></tspan></text></g></g></svg>