<svg id="SvgjsSvg1945" width="957.0124816894531" height="927.6624984741211" xmlns="http://www.w3.org/2000/svg" version="1.1" xmlns:xlink="http://www.w3.org/1999/xlink" xmlns:svgjs="http://svgjs.com/svgjs"><defs id="SvgjsDefs1946"><marker id="SvgjsMarker2115" markerWidth="14" markerHeight="10" refX="10" refY="5" viewBox="0 0 14 10" orient="auto" markerUnits="userSpaceOnUse" stroke-dasharray="0,0"><path id="SvgjsPath2116" d="M0,0 L14,5 L0,10 L0,0" fill="#ffcc99" stroke="#ffcc99" stroke-width="1"></path></marker><marker id="SvgjsMarker2119" markerWidth="14" markerHeight="10" refX="10" refY="5" viewBox="0 0 14 10" orient="auto" markerUnits="userSpaceOnUse" stroke-dasharray="0,0"><path id="SvgjsPath2120" d="M0,0 L14,5 L0,10 L0,0" fill="#99ff99" stroke="#99ff99" stroke-width="1"></path></marker><marker id="SvgjsMarker2150" markerWidth="14" markerHeight="10" refX="4" refY="5" viewBox="0 0 14 10" orient="auto" markerUnits="userSpaceOnUse" stroke-dasharray="0,0"><path id="SvgjsPath2151" d="M14,0 L0,5 L14,10 L14,0" fill="#66ffb3" stroke="#66ffb3" stroke-width="1"></path></marker><marker id="SvgjsMarker2154" markerWidth="14" markerHeight="10" refX="4" refY="5" viewBox="0 0 14 10" orient="auto" markerUnits="userSpaceOnUse" stroke-dasharray="0,0"><path id="SvgjsPath2155" d="M14,0 L0,5 L14,10 L14,0" fill="#66ffb3" stroke="#66ffb3" stroke-width="1"></path></marker><marker id="SvgjsMarker2158" markerWidth="14" markerHeight="10" refX="10" refY="5" viewBox="0 0 14 10" orient="auto" markerUnits="userSpaceOnUse" stroke-dasharray="0,0"><path id="SvgjsPath2159" d="M0,0 L14,5 L0,10 L0,0" fill="#99ff99" stroke="#99ff99" stroke-width="1"></path></marker><marker id="SvgjsMarker2186" markerWidth="14" markerHeight="10" refX="10" refY="5" viewBox="0 0 14 10" orient="auto" markerUnits="userSpaceOnUse" stroke-dasharray="0,0"><path id="SvgjsPath2187" d="M0,0 L14,5 L0,10 L0,0" fill="#9999ff" stroke="#9999ff" stroke-width="1"></path></marker><marker id="SvgjsMarker2190" markerWidth="14" markerHeight="10" refX="10" refY="5" viewBox="0 0 14 10" orient="auto" markerUnits="userSpaceOnUse" stroke-dasharray="0,0"><path id="SvgjsPath2191" d="M0,0 L14,5 L0,10 L0,0" fill="#9999ff" stroke="#9999ff" stroke-width="1"></path></marker></defs><rect id="svgbackgroundid" width="957.0124816894531" height="927.6624984741211" fill="#ffffff"></rect><g id="SvgjsG1948" transform="translate(56.012481689453125,681.6677382683281)"><path id="SvgjsPath1949" d="M 0 0L 855 0L 855 220.57289401992398L 0 220.57289401992398Z" stroke-dasharray="3,4" stroke="rgba(33,41,48,1)" stroke-width="2" fill-opacity="1" fill="#ffffff"></path><g id="SvgjsG1950"><text id="SvgjsText1951" font-family="微软雅黑" text-anchor="middle" font-size="13px" width="835px" fill="#323232" font-weight="400" align="middle" lineHeight="125%" anchor="middle" family="微软雅黑" size="13px" weight="400" font-style="" opacity="1" y="99.66144700996199" transform="rotate(0)"></text></g></g><g id="SvgjsG1952" transform="translate(56.012481689453125,207.0374984741211)"><path id="SvgjsPath1953" d="M 0 0L 855 0L 855 464.0000030994415L 0 464.0000030994415Z" stroke-dasharray="3,4" stroke="rgba(33,41,48,1)" stroke-width="2" fill-opacity="1" fill="#ffffff"></path><g id="SvgjsG1954"><text id="SvgjsText1955" font-family="微软雅黑" text-anchor="middle" font-size="13px" width="835px" fill="#323232" font-weight="400" align="middle" lineHeight="125%" anchor="middle" family="微软雅黑" size="13px" weight="400" font-style="" opacity="1" y="221.37500154972076" transform="rotate(0)"></text></g></g><g id="SvgjsG1956" transform="translate(56.012481689453125,118.80725567584)"><path id="SvgjsPath1957" d="M 0 0L 855 0L 855 77.60000610351562L 0 77.60000610351562Z" stroke-dasharray="3,4" stroke="rgba(33,41,48,1)" stroke-width="2" fill-opacity="1" fill="#ffffff"></path><g id="SvgjsG1958"><text id="SvgjsText1959" font-family="微软雅黑" text-anchor="middle" font-size="13px" width="835px" fill="#323232" font-weight="400" align="middle" lineHeight="125%" anchor="middle" family="微软雅黑" size="13px" weight="400" font-style="" opacity="1" y="28.175003051757812" transform="rotate(0)"></text></g></g><g id="SvgjsG1960" transform="translate(163.41249084472656,570.1969268665118)"><path id="SvgjsPath1961" d="M 0 4Q 0 0 4 0L 550 0Q 554 0 554 4L 554 85.09487301272634Q 554 89.09487301272634 550 89.09487301272634L 4 89.09487301272634Q 0 89.09487301272634 0 85.09487301272634Z" stroke="none" fill-opacity="1" fill="#9999ff"></path><g id="SvgjsG1962"><text id="SvgjsText1963" font-family="微软雅黑" text-anchor="middle" font-size="13px" width="534px" fill="#323232" font-weight="400" align="middle" lineHeight="125%" anchor="middle" family="微软雅黑" size="13px" weight="400" font-style="" opacity="1" y="33.92243650636317" transform="rotate(0)"></text></g></g><g id="SvgjsG1964" transform="translate(64.91249084472656,538.5391589844423)"><path id="SvgjsPath1965" d="M 0 10.5L 691 10.5" stroke-dasharray="10,6" stroke="rgba(136,136,136,1)" stroke-width="1" fill="none"></path><path id="SvgjsPath1966" d="M 0 0L 691 0L 691 21L 0 21Z" stroke="none" fill="none"></path></g><g id="SvgjsG1967" transform="translate(64.91249084472656,400.06774432416)"><path id="SvgjsPath1968" d="M 0 10.5L 691 10.5" stroke-dasharray="10,6" stroke="rgba(136,136,136,1)" stroke-width="1" fill="none"></path><path id="SvgjsPath1969" d="M 0 0L 691 0L 691 21L 0 21Z" stroke="none" fill="none"></path></g><g id="SvgjsG1970" transform="translate(163.41249084472668,130.6072587275978)"><path id="SvgjsPath1971" d="M 0 4Q 0 0 4 0L 549.9999999999998 0Q 553.9999999999998 0 553.9999999999998 4L 553.9999999999998 50Q 553.9999999999998 54 549.9999999999998 54L 4 54Q 0 54 0 50Z" stroke="none" fill-opacity="1" fill="#66ffb3"></path><g id="SvgjsG1972"><text id="SvgjsText1973" font-family="微软雅黑" text-anchor="middle" font-size="13px" width="534px" fill="#323232" font-weight="400" align="middle" lineHeight="125%" anchor="middle" family="微软雅黑" size="13px" weight="400" font-style="" opacity="1" y="16.375" transform="rotate(0)"></text></g></g><g id="SvgjsG1974" transform="translate(163.41249084472656,806.6100472066715)"><path id="SvgjsPath1975" d="M 0 4Q 0 0 4 0L 550 0Q 554 0 554 4L 554 74.57458563535897Q 554 78.57458563535897 550 78.57458563535897L 4 78.57458563535897Q 0 78.57458563535897 0 74.57458563535897Z" stroke="none" fill-opacity="1" fill="#99ccff"></path><g id="SvgjsG1976"><text id="SvgjsText1977" font-family="微软雅黑" text-anchor="middle" font-size="13px" width="534px" fill="#323232" font-weight="400" align="middle" lineHeight="125%" anchor="middle" family="微软雅黑" size="13px" weight="400" font-style="" opacity="1" y="28.662292817679486" transform="rotate(0)"></text></g></g><g id="SvgjsG1978" transform="translate(71.91249084472656,824.397340024351)"><path id="SvgjsPath1979" d="M 0 0L 95 0L 95 43L 0 43Z" stroke="none" fill="none"></path><g id="SvgjsG1980"><text id="SvgjsText1981" font-family="微软雅黑" text-anchor="middle" font-size="13px" width="95px" fill="#323232" font-weight="400" align="middle" lineHeight="125%" anchor="middle" family="微软雅黑" size="13px" weight="400" font-style="" opacity="1" y="10.875" transform="rotate(0)"><tspan id="SvgjsTspan1982" dy="16" x="47.5"><tspan id="SvgjsTspan1983" style="text-decoration:;">运行环境</tspan></tspan></text></g></g><g id="SvgjsG1984" transform="translate(255.91249084472656,830.397340024351)"><path id="SvgjsPath1985" d="M 0 0L 121 0L 121 31L 0 31Z" stroke="rgba(33,41,48,1)" stroke-width="2" fill-opacity="1" fill="#ffffff"></path><g id="SvgjsG1986"><text id="SvgjsText1987" font-family="微软雅黑" text-anchor="middle" font-size="13px" width="101px" fill="#323232" font-weight="400" align="middle" lineHeight="125%" anchor="middle" family="微软雅黑" size="13px" weight="400" font-style="" opacity="1" y="4.875" transform="rotate(0)"><tspan id="SvgjsTspan1988" dy="16" x="60.5"><tspan id="SvgjsTspan1989" style="text-decoration:;">Linux</tspan></tspan></text></g></g><g id="SvgjsG1990" transform="translate(538.5316764288076,830.397340024351)"><path id="SvgjsPath1991" d="M 0 0L 121 0L 121 31L 0 31Z" stroke="rgba(33,41,48,1)" stroke-width="2" fill-opacity="1" fill="#ffffff"></path><g id="SvgjsG1992"><text id="SvgjsText1993" font-family="微软雅黑" text-anchor="middle" font-size="13px" width="101px" fill="#323232" font-weight="400" align="middle" lineHeight="125%" anchor="middle" family="微软雅黑" size="13px" weight="400" font-style="" opacity="1" y="4.875" transform="rotate(0)"><tspan id="SvgjsTspan1994" dy="16" x="60.5"><tspan id="SvgjsTspan1995" style="text-decoration:;">MacOS</tspan></tspan></text></g></g><g id="SvgjsG1996" transform="translate(394.9124908447266,830.397340024351)"><path id="SvgjsPath1997" d="M 0 0L 121 0L 121 31L 0 31Z" stroke="rgba(33,41,48,1)" stroke-width="2" fill-opacity="1" fill="#ffffff"></path><g id="SvgjsG1998"><text id="SvgjsText1999" font-family="微软雅黑" text-anchor="middle" font-size="13px" width="101px" fill="#323232" font-weight="400" align="middle" lineHeight="125%" anchor="middle" family="微软雅黑" size="13px" weight="400" font-style="" opacity="1" y="4.875" transform="rotate(0)"><tspan id="SvgjsTspan2000" dy="16" x="60.5"><tspan id="SvgjsTspan2001" style="text-decoration:;">Windows</tspan></tspan></text></g></g><g id="SvgjsG2002" transform="translate(163.41249084472656,420.5951059872401)"><path id="SvgjsPath2003" d="M 0 4Q 0 0 4 0L 550 0Q 554 0 554 4L 554 109Q 554 113 550 113L 4 113Q 0 113 0 109Z" stroke="none" fill-opacity="1" fill="#99ff99"></path><g id="SvgjsG2004"><text id="SvgjsText2005" font-family="微软雅黑" text-anchor="middle" font-size="13px" width="534px" fill="#323232" font-weight="400" align="middle" lineHeight="125%" anchor="middle" family="微软雅黑" size="13px" weight="400" font-style="" opacity="1" y="45.875" transform="rotate(0)"></text></g></g><g id="SvgjsG2006" transform="translate(64.91249084472656,455.5951059872401)"><path id="SvgjsPath2007" d="M 0 0L 95 0L 95 43L 0 43Z" stroke="none" fill="none"></path><g id="SvgjsG2008"><text id="SvgjsText2009" font-family="微软雅黑" text-anchor="middle" font-size="13px" width="95px" fill="#323232" font-weight="400" align="middle" lineHeight="125%" anchor="middle" family="微软雅黑" size="13px" weight="400" font-style="" opacity="1" y="10.875" transform="rotate(0)"><tspan id="SvgjsTspan2010" dy="16" x="47.5"><tspan id="SvgjsTspan2011" style="text-decoration:;">数据模型</tspan></tspan></text></g></g><g id="SvgjsG2012" transform="translate(163.41249084472668,297.8375015258789)"><path id="SvgjsPath2013" d="M 0 4Q 0 0 4 0L 549.9999999999998 0Q 553.9999999999998 0 553.9999999999998 4L 553.9999999999998 94Q 553.9999999999998 98 549.9999999999998 98L 4 98Q 0 98 0 94Z" stroke="none" fill-opacity="1" fill="#99ff99"></path><g id="SvgjsG2014"><text id="SvgjsText2015" font-family="微软雅黑" text-anchor="middle" font-size="13px" width="534px" fill="#323232" font-weight="400" align="middle" lineHeight="125%" anchor="middle" family="微软雅黑" size="13px" weight="400" font-style="" opacity="1" y="38.375" transform="rotate(0)"></text></g></g><g id="SvgjsG2016" transform="translate(63.91249084472656,325.3375015258789)"><path id="SvgjsPath2017" d="M 0 0L 95 0L 95 43L 0 43Z" stroke="none" fill="none"></path><g id="SvgjsG2018"><text id="SvgjsText2019" font-family="微软雅黑" text-anchor="middle" font-size="13px" width="95px" fill="#323232" font-weight="400" align="middle" lineHeight="125%" anchor="middle" family="微软雅黑" size="13px" weight="400" font-style="" opacity="1" y="10.875" transform="rotate(0)"><tspan id="SvgjsTspan2020" dy="16" x="47.5"><tspan id="SvgjsTspan2021" style="text-decoration:;">业务逻辑</tspan></tspan></text></g></g><g id="SvgjsG2022" transform="translate(264.41249084472656,309.6817179437894)"><path id="SvgjsPath2023" d="M 0 0L 112 0L 112 31L 0 31Z" stroke="rgba(33,41,48,1)" stroke-width="2" fill-opacity="1" fill="#ffffff"></path><g id="SvgjsG2024"><text id="SvgjsText2025" font-family="微软雅黑" text-anchor="middle" font-size="13px" width="92px" fill="#323232" font-weight="400" align="middle" lineHeight="125%" anchor="middle" family="微软雅黑" size="13px" weight="400" font-style="" opacity="1" y="4.875" transform="rotate(0)"><tspan id="SvgjsTspan2026" dy="16" x="56"><tspan id="SvgjsTspan2027" style="text-decoration:;">添加todo</tspan></tspan></text></g></g><g id="SvgjsG2028" transform="translate(392.4203442451287,309.6817179437894)"><path id="SvgjsPath2029" d="M 0 0L 112 0L 112 31L 0 31Z" stroke="rgba(33,41,48,1)" stroke-width="2" fill-opacity="1" fill="#ffffff"></path><g id="SvgjsG2030"><text id="SvgjsText2031" font-family="微软雅黑" text-anchor="middle" font-size="13px" width="92px" fill="#323232" font-weight="400" align="middle" lineHeight="125%" anchor="middle" family="微软雅黑" size="13px" weight="400" font-style="" opacity="1" y="4.875" transform="rotate(0)"><tspan id="SvgjsTspan2032" dy="16" x="56"><tspan id="SvgjsTspan2033" style="text-decoration:;">完成todo</tspan></tspan></text></g></g><g id="SvgjsG2034" transform="translate(306.41249084472656,483.60878681878023)"><path id="SvgjsPath2035" d="M 0 0L 112 0L 112 37L 0 37Z" stroke="rgba(33,41,48,1)" stroke-width="2" fill-opacity="1" fill="#ffffff"></path><g id="SvgjsG2036"><text id="SvgjsText2037" font-family="微软雅黑" text-anchor="middle" font-size="13px" width="92px" fill="#323232" font-weight="400" align="middle" lineHeight="125%" anchor="middle" family="微软雅黑" size="13px" weight="400" font-style="" opacity="1" y="7.875" transform="rotate(0)"><tspan id="SvgjsTspan2038" dy="16" x="56"><tspan id="SvgjsTspan2039" style="text-decoration:;fill: rgb(50, 50, 50);">序列化</tspan></tspan></text></g></g><g id="SvgjsG2040" transform="translate(519.4124908447266,309.6817179437894)"><path id="SvgjsPath2041" d="M 0 0L 112 0L 112 31L 0 31Z" stroke="rgba(33,41,48,1)" stroke-width="2" fill-opacity="1" fill="#ffffff"></path><g id="SvgjsG2042"><text id="SvgjsText2043" font-family="微软雅黑" text-anchor="middle" font-size="13px" width="92px" fill="#323232" font-weight="400" align="middle" lineHeight="125%" anchor="middle" family="微软雅黑" size="13px" weight="400" font-style="" opacity="1" y="4.875" transform="rotate(0)"><tspan id="SvgjsTspan2044" dy="16" x="56"><tspan id="SvgjsTspan2045" style="text-decoration:;fill: rgb(50, 50, 50);">放入回收站</tspan></tspan></text></g></g><g id="SvgjsG2046" transform="translate(264.41249084472656,352.9932851079684)"><path id="SvgjsPath2047" d="M 0 0L 112 0L 112 31L 0 31Z" stroke="rgba(33,41,48,1)" stroke-width="2" fill-opacity="1" fill="#ffffff"></path><g id="SvgjsG2048"><text id="SvgjsText2049" font-family="微软雅黑" text-anchor="middle" font-size="13px" width="92px" fill="#323232" font-weight="400" align="middle" lineHeight="125%" anchor="middle" family="微软雅黑" size="13px" weight="400" font-style="" opacity="1" y="4.875" transform="rotate(0)"><tspan id="SvgjsTspan2050" dy="16" x="56"><tspan id="SvgjsTspan2051" style="text-decoration:;">清空回收站</tspan></tspan></text></g></g><g id="SvgjsG2052" transform="translate(392.4203442451287,352.9932851079684)"><path id="SvgjsPath2053" d="M 0 0L 112 0L 112 31L 0 31Z" stroke="rgba(33,41,48,1)" stroke-width="2" fill-opacity="1" fill="#ffffff"></path><g id="SvgjsG2054"><text id="SvgjsText2055" font-family="微软雅黑" text-anchor="middle" font-size="13px" width="92px" fill="#323232" font-weight="400" align="middle" lineHeight="125%" anchor="middle" family="微软雅黑" size="13px" weight="400" font-style="" opacity="1" y="4.875" transform="rotate(0)"><tspan id="SvgjsTspan2056" dy="16" x="56"><tspan id="SvgjsTspan2057" style="text-decoration:;">列出todo列表</tspan></tspan></text></g></g><g id="SvgjsG2058" transform="translate(519.4124908447266,352.9932851079684)"><path id="SvgjsPath2059" d="M 0 0L 112 0L 112 31L 0 31Z" stroke="rgba(33,41,48,1)" stroke-width="2" fill-opacity="1" fill="#ffffff"></path><g id="SvgjsG2060"><text id="SvgjsText2061" font-family="微软雅黑" text-anchor="middle" font-size="13px" width="92px" fill="#323232" font-weight="700" align="middle" lineHeight="125%" anchor="middle" family="微软雅黑" size="13px" weight="700" font-style="" opacity="1" y="4.875" transform="rotate(0)"><tspan id="SvgjsTspan2062" dy="16" x="56"><tspan id="SvgjsTspan2063" style="text-decoration:;">… …</tspan></tspan></text></g></g><g id="SvgjsG2064" transform="translate(63.91249084472656,136.1072587275978)"><path id="SvgjsPath2065" d="M 0 0L 95 0L 95 43L 0 43Z" stroke="none" fill="none"></path><g id="SvgjsG2066"><text id="SvgjsText2067" font-family="微软雅黑" text-anchor="middle" font-size="13px" width="95px" fill="#323232" font-weight="400" align="middle" lineHeight="125%" anchor="middle" family="微软雅黑" size="13px" weight="400" font-style="" opacity="1" y="10.875" transform="rotate(0)"><tspan id="SvgjsTspan2068" dy="16" x="47.5"><tspan id="SvgjsTspan2069" style="text-decoration:;">命令行接口</tspan></tspan></text></g></g><g id="SvgjsG2070" transform="translate(445.20254106713014,142.1072587275978)"><path id="SvgjsPath2071" d="M 0 0L 95 0L 95 31L 0 31Z" stroke="rgba(33,41,48,1)" stroke-width="2" fill-opacity="1" fill="#ffffff"></path><g id="SvgjsG2072"><text id="SvgjsText2073" font-family="微软雅黑" text-anchor="middle" font-size="13px" width="75px" fill="#323232" font-weight="400" align="middle" lineHeight="125%" anchor="middle" family="微软雅黑" size="13px" weight="400" font-style="" opacity="1" y="4.875" transform="rotate(0)"><tspan id="SvgjsTspan2074" dy="16" x="47.5"><tspan id="SvgjsTspan2075" style="text-decoration:;">调用lib接口</tspan></tspan></text></g></g><g id="SvgjsG2076" transform="translate(331.4925912895336,142.1072587275978)"><path id="SvgjsPath2077" d="M 0 0L 95 0L 95 31L 0 31Z" stroke="rgba(33,41,48,1)" stroke-width="2" fill-opacity="1" fill="#ffffff"></path><g id="SvgjsG2078"><text id="SvgjsText2079" font-family="微软雅黑" text-anchor="middle" font-size="13px" width="75px" fill="#323232" font-weight="400" align="middle" lineHeight="125%" anchor="middle" family="微软雅黑" size="13px" weight="400" font-style="" opacity="1" y="4.875" transform="rotate(0)"><tspan id="SvgjsTspan2080" dy="16" x="47.5"><tspan id="SvgjsTspan2081" style="text-decoration:;">帮助文档</tspan></tspan></text></g></g><g id="SvgjsG2082" transform="translate(217.91249084472656,142.1072587275978)"><path id="SvgjsPath2083" d="M 0 0L 95 0L 95 31L 0 31Z" stroke="rgba(33,41,48,1)" stroke-width="2" fill-opacity="1" fill="#ffffff"></path><g id="SvgjsG2084"><text id="SvgjsText2085" font-family="微软雅黑" text-anchor="middle" font-size="13px" width="75px" fill="#323232" font-weight="400" align="middle" lineHeight="125%" anchor="middle" family="微软雅黑" size="13px" weight="400" font-style="" opacity="1" y="4.875" transform="rotate(0)"><tspan id="SvgjsTspan2086" dy="16" x="47.5"><tspan id="SvgjsTspan2087" style="text-decoration:;">参数解析</tspan></tspan></text></g></g><g id="SvgjsG2088" transform="translate(559.9124908447266,142.1072587275978)"><path id="SvgjsPath2089" d="M 0 0L 95 0L 95 31L 0 31Z" stroke="rgba(33,41,48,1)" stroke-width="2" fill-opacity="1" fill="#ffffff"></path><g id="SvgjsG2090"><text id="SvgjsText2091" font-family="微软雅黑" text-anchor="middle" font-size="13px" width="75px" fill="#323232" font-weight="400" align="middle" lineHeight="125%" anchor="middle" family="微软雅黑" size="13px" weight="400" font-style="" opacity="1" y="4.875" transform="rotate(0)"><tspan id="SvgjsTspan2092" dy="16" x="47.5"><tspan id="SvgjsTspan2093" style="text-decoration:;">错误处理</tspan></tspan></text></g></g><g id="SvgjsG2094" transform="translate(64.91249084472656,276.06774432416)"><path id="SvgjsPath2095" d="M 0 10.5L 691 10.5" stroke-dasharray="10,6" stroke="rgba(136,136,136,1)" stroke-width="1" fill="none"></path><path id="SvgjsPath2096" d="M 0 0L 691 0L 691 21L 0 21Z" stroke="none" fill="none"></path></g><g id="SvgjsG2097" transform="translate(63.91249084472656,221.3375015258789)"><path id="SvgjsPath2098" d="M 0 0L 95 0L 95 43L 0 43Z" stroke="none" fill="none"></path><g id="SvgjsG2099"><text id="SvgjsText2100" font-family="微软雅黑" text-anchor="middle" font-size="13px" width="95px" fill="#323232" font-weight="400" align="middle" lineHeight="125%" anchor="middle" family="微软雅黑" size="13px" weight="400" font-style="" opacity="1" y="10.875" transform="rotate(0)"><tspan id="SvgjsTspan2101" dy="16" x="47.5"><tspan id="SvgjsTspan2102" style="text-decoration:;">应用接口</tspan></tspan></text></g></g><g id="SvgjsG2103" transform="translate(163.41249084472668,213.8375015258789)"><path id="SvgjsPath2104" d="M 0 4Q 0 0 4 0L 549.9999999999998 0Q 553.9999999999998 0 553.9999999999998 4L 553.9999999999998 54Q 553.9999999999998 58 549.9999999999998 58L 4 58Q 0 58 0 54Z" stroke="none" fill-opacity="1" fill="#ffcc99"></path><g id="SvgjsG2105"><text id="SvgjsText2106" font-family="微软雅黑" text-anchor="start" font-size="13px" width="534px" fill="#323232" font-weight="400" align="middle" lineHeight="125%" anchor="start" family="微软雅黑" size="13px" weight="400" font-style="" opacity="1" y="18.375" transform="rotate(0)"></text></g></g><g id="SvgjsG2107" transform="translate(351.2007061664866,227.3375015258789)"><path id="SvgjsPath2108" d="M 0 0L 178.4235693564799 0L 178.4235693564799 31L 0 31Z" stroke="rgba(33,41,48,1)" stroke-width="2" fill-opacity="1" fill="#ffffff"></path><g id="SvgjsG2109"><text id="SvgjsText2110" font-family="微软雅黑" text-anchor="middle" font-size="13px" width="159px" fill="#323232" font-weight="400" align="middle" lineHeight="125%" anchor="middle" family="微软雅黑" size="13px" weight="400" font-style="" opacity="1" y="4.875" transform="rotate(0)"><tspan id="SvgjsTspan2111" dy="16" x="89.5"><tspan id="SvgjsTspan2112" style="text-decoration:;">通过Rust Library暴露接口</tspan></tspan></text></g></g><g id="SvgjsG2113"><path id="SvgjsPath2114" d="M440.41249084472656 271.8375015258789L440.41249084472656 284.8375015258789L440.41249084472656 284.8375015258789L440.41249084472656 295.2375015258789" stroke="#ffcc99" stroke-width="2" fill="none" marker-end="url(#SvgjsMarker2115)"></path></g><g id="SvgjsG2117"><path id="SvgjsPath2118" d="M439.81704084312037 395.8375015258789L439.81704084312037 408.2163037565595L440.41249084472656 408.2163037565595L440.41249084472656 417.9951059872401" stroke="#99ff99" stroke-width="2" fill="none" marker-end="url(#SvgjsMarker2119)"></path></g><g id="SvgjsG2121" transform="translate(71.91249084472656,592.5018817193198)"><path id="SvgjsPath2122" d="M 0 0L 95 0L 95 43L 0 43Z" stroke="none" fill="none"></path><g id="SvgjsG2123"><text id="SvgjsText2124" font-family="微软雅黑" text-anchor="middle" font-size="13px" width="95px" fill="#323232" font-weight="400" align="middle" lineHeight="125%" anchor="middle" family="微软雅黑" size="13px" weight="400" font-style="" opacity="1" y="10.875" transform="rotate(0)"><tspan id="SvgjsTspan2125" dy="16" x="47.5"><tspan id="SvgjsTspan2126" style="text-decoration:;">模型映射</tspan></tspan></text></g></g><g id="SvgjsG2127" transform="translate(64.91249084472656,772.2401178704863)"><path id="SvgjsPath2128" d="M 0 10.5L 691 10.5" stroke-dasharray="10,6" stroke="rgba(136,136,136,1)" stroke-width="1" fill="none"></path><path id="SvgjsPath2129" d="M 0 0L 691 0L 691 21L 0 21Z" stroke="none" fill="none"></path></g><g id="SvgjsG2130" transform="translate(306.41249084472656,433.8382655714701)"><path id="SvgjsPath2131" d="M 0 0L 112 0L 112 37L 0 37Z" stroke="rgba(33,41,48,1)" stroke-width="2" fill-opacity="1" fill="#ffffff"></path><g id="SvgjsG2132"><text id="SvgjsText2133" font-family="微软雅黑" text-anchor="middle" font-size="13px" width="92px" fill="#323232" font-weight="400" align="middle" lineHeight="125%" anchor="middle" family="微软雅黑" size="13px" weight="400" font-style="" opacity="1" y="7.875" transform="rotate(0)"><tspan id="SvgjsTspan2134" dy="16" x="56"><tspan id="SvgjsTspan2135" style="text-decoration:;">数据结构</tspan></tspan></text></g></g><g id="SvgjsG2136" transform="translate(461.91249084472656,433.8382655714701)"><path id="SvgjsPath2137" d="M 0 0L 112 0L 112 37L 0 37Z" stroke="rgba(33,41,48,1)" stroke-width="2" fill-opacity="1" fill="#ffffff"></path><g id="SvgjsG2138"><text id="SvgjsText2139" font-family="微软雅黑" text-anchor="middle" font-size="13px" width="92px" fill="#323232" font-weight="400" align="middle" lineHeight="125%" anchor="middle" family="微软雅黑" size="13px" weight="400" font-style="" opacity="1" y="7.875" transform="rotate(0)"><tspan id="SvgjsTspan2140" dy="16" x="56"><tspan id="SvgjsTspan2141" style="text-decoration:;">数据显示定义</tspan></tspan></text></g></g><g id="SvgjsG2142" transform="translate(461.91249084472656,483.60878681878023)"><path id="SvgjsPath2143" d="M 0 0L 112 0L 112 37L 0 37Z" stroke="rgba(33,41,48,1)" stroke-width="2" fill-opacity="1" fill="#ffffff"></path><g id="SvgjsG2144"><text id="SvgjsText2145" font-family="微软雅黑" text-anchor="middle" font-size="13px" width="92px" fill="#323232" font-weight="400" align="middle" lineHeight="125%" anchor="middle" family="微软雅黑" size="13px" weight="400" font-style="" opacity="1" y="7.875" transform="rotate(0)"><tspan id="SvgjsTspan2146" dy="16" x="56"><tspan id="SvgjsTspan2147" style="text-decoration:;fill: rgb(50, 50, 50);">反序列化</tspan></tspan></text></g></g><g id="SvgjsG2148"><path id="SvgjsPath2149" d="M329.0124816894531 211.4374984741211L329.0124816894531 199.0374984741211L329.0124816894531 199.0374984741211L329.0124816894531 184.0374984741211" stroke="#66ffb3" stroke-width="2" fill="none" marker-start="url(#SvgjsMarker2150)"></path></g><g id="SvgjsG2152"><path id="SvgjsPath2153" d="M516.8063877323705 206.80725567584L516.8063877323705 195.7072572017189L516.8063877323705 195.7072572017189L516.8063877323705 184.6072587275978" stroke="#66ffb3" stroke-width="2" fill="none" marker-start="url(#SvgjsMarker2154)"></path></g><g id="SvgjsG2156"><path id="SvgjsPath2157" d="M440.41249084472656 533.5951059872402L440.41249084472656 551.896016426876L440.41249084472656 551.896016426876L440.41249084472656 567.5969268665118" stroke="#99ff99" stroke-width="2" fill="none" marker-end="url(#SvgjsMarker2158)"></path></g><g id="SvgjsG2160" transform="translate(771.0124816894531,137.6072587275978)"><path id="SvgjsPath2161" d="M 0 0L 129 0L 129 40L 0 40Z" stroke="none" fill="none"></path><g id="SvgjsG2162"><text id="SvgjsText2163" font-family="微软雅黑" text-anchor="middle" font-size="20px" width="129px" fill="#4669ea" font-weight="700" align="middle" lineHeight="125%" anchor="middle" family="微软雅黑" size="20px" weight="700" font-style="" opacity="1" y="2" transform="rotate(0)"><tspan id="SvgjsTspan2164" dy="25" x="64.5"><tspan id="SvgjsTspan2165" style="text-decoration:;">binary crate</tspan></tspan></text></g></g><g id="SvgjsG2166" transform="translate(163.41249084472656,692.6489732165996)"><path id="SvgjsPath2167" d="M 0 4Q 0 0 4 0L 550 0Q 554 0 554 4L 554 75.8070344668414Q 554 79.8070344668414 550 79.8070344668414L 4 79.8070344668414Q 0 79.8070344668414 0 75.8070344668414Z" stroke="none" fill-opacity="1" fill="#9999ff"></path><g id="SvgjsG2168"><text id="SvgjsText2169" font-family="微软雅黑" text-anchor="middle" font-size="13px" width="534px" fill="#323232" font-weight="400" align="middle" lineHeight="125%" anchor="middle" family="微软雅黑" size="13px" weight="400" font-style="" opacity="1" y="29.2785172334207" transform="rotate(0)"></text></g></g><g id="SvgjsG2170" transform="translate(68.41249084472656,709.8568749026315)"><path id="SvgjsPath2171" d="M 0 0L 95 0L 95 43L 0 43Z" stroke="none" fill="none"></path><g id="SvgjsG2172"><text id="SvgjsText2173" font-family="微软雅黑" text-anchor="middle" font-size="13px" width="95px" fill="#323232" font-weight="400" align="middle" lineHeight="125%" anchor="middle" family="微软雅黑" size="13px" weight="400" font-style="" opacity="1" y="10.875" transform="rotate(0)"><tspan id="SvgjsTspan2174" dy="16" x="47.5"><tspan id="SvgjsTspan2175" style="text-decoration:;">数据存储</tspan></tspan></text></g></g><g id="SvgjsG2176" transform="translate(338.96249771118164,703.389975415146)"><path id="SvgjsPath2177" d="M 0 0L 186.89998626708984 0L 202.89998626708984 16L 202.89998626708984 57.93379897497107L 0 57.93379897497107L 0 0Z" stroke="none" fill-opacity="1" fill="#fff7bc"></path><path id="SvgjsPath2178" d="M 186.89998626708984 0L 186.89998626708984 16L 202.89998626708984 16Z" stroke="none" fill-opacity="1" fill="#e4d089"></path><path id="SvgjsPath2179" d="M 0 0L 186.89998626708984 0L 202.89998626708984 16L 202.89998626708984 57.93379897497107L 0 57.93379897497107L 0 0Z" stroke="none" fill="none"></path><g id="SvgjsG2180"><text id="SvgjsText2181" font-family="微软雅黑" text-anchor="middle" font-size="13px" width="183px" fill="#323232" font-weight="400" align="middle" lineHeight="125%" anchor="middle" family="微软雅黑" size="13px" weight="400" font-style="" opacity="1" y="18.341899487485534" transform="rotate(0)"><tspan id="SvgjsTspan2182" dy="16" x="101.5"><tspan id="SvgjsTspan2183" style="text-decoration:;">本地CSV文件</tspan></tspan></text></g></g><g id="SvgjsG2184"><path id="SvgjsPath2185" d="M440.41249084472656 659.2917998792382L440.41249084472656 675.9703865479189L440.41249084472656 675.9703865479189L440.41249084472656 690.0489732165996" stroke="#9999ff" stroke-width="2" fill="none" marker-end="url(#SvgjsMarker2186)"></path></g><g id="SvgjsG2188"><path id="SvgjsPath2189" d="M440.41249084472656 772.456007683441L440.41249084472656 789.5330274450563L440.41249084472656 789.5330274450563L440.41249084472656 804.0100472066715" stroke="#9999ff" stroke-width="2" fill="none" marker-end="url(#SvgjsMarker2190)"></path></g><g id="SvgjsG2192" transform="translate(771.0124816894531,421.06774432416)"><path id="SvgjsPath2193" d="M 0 0L 129 0L 129 40L 0 40Z" stroke="none" fill="none"></path><g id="SvgjsG2194"><text id="SvgjsText2195" font-family="微软雅黑" text-anchor="middle" font-size="20px" width="129px" fill="#4669ea" font-weight="700" align="middle" lineHeight="125%" anchor="middle" family="微软雅黑" size="20px" weight="700" font-style="" opacity="1" y="2" transform="rotate(0)"><tspan id="SvgjsTspan2196" dy="25" x="64.5"><tspan id="SvgjsTspan2197" style="text-decoration:;">library crate</tspan></tspan></text></g></g><g id="SvgjsG2198" transform="translate(775.0124816894531,762.7401178704863)"><path id="SvgjsPath2199" d="M 0 0L 129 0L 129 40L 0 40Z" stroke="none" fill="none"></path><g id="SvgjsG2200"><text id="SvgjsText2201" font-family="微软雅黑" text-anchor="middle" font-size="20px" width="129px" fill="#4669ea" font-weight="700" align="middle" lineHeight="125%" anchor="middle" family="微软雅黑" size="20px" weight="700" font-style="" opacity="1" y="2" transform="rotate(0)"><tspan id="SvgjsTspan2202" dy="25" x="64.5"><tspan id="SvgjsTspan2203" style="text-decoration:;">OS</tspan></tspan></text></g></g><g id="SvgjsG2204" transform="translate(623.9124908447266,137.6072587275978)"><path id="SvgjsPath2205" d="M 0 0L 129 0L 129 40L 0 40Z" stroke="none" fill="none"></path><g id="SvgjsG2206"><text id="SvgjsText2207" font-family="微软雅黑" text-anchor="middle" font-size="16px" width="129px" fill="#000000" font-weight="400" align="middle" lineHeight="125%" anchor="middle" family="微软雅黑" size="16px" weight="400" font-style="" opacity="1" y="6" transform="rotate(0)"><tspan id="SvgjsTspan2208" dy="20" x="64.5"><tspan id="SvgjsTspan2209" style="text-decoration:;">main.rs</tspan></tspan></text></g></g><g id="SvgjsG2210" transform="translate(626.9124908447266,222.8375015258789)"><path id="SvgjsPath2211" d="M 0 0L 129 0L 129 40L 0 40Z" stroke="none" fill="none"></path><g id="SvgjsG2212"><text id="SvgjsText2213" font-family="微软雅黑" text-anchor="middle" font-size="16px" width="129px" fill="#000000" font-weight="400" align="middle" lineHeight="125%" anchor="middle" family="微软雅黑" size="16px" weight="400" font-style="" opacity="1" y="6" transform="rotate(0)"><tspan id="SvgjsTspan2214" dy="20" x="64.5"><tspan id="SvgjsTspan2215" style="text-decoration:;">lib.rs</tspan></tspan></text></g></g><g id="SvgjsG2216" transform="translate(615.4124908447266,326.8375015258789)"><path id="SvgjsPath2217" d="M 0 0L 129 0L 129 40L 0 40Z" stroke="none" fill="none"></path><g id="SvgjsG2218"><text id="SvgjsText2219" font-family="微软雅黑" text-anchor="middle" font-size="16px" width="129px" fill="#000000" font-weight="400" align="middle" lineHeight="125%" anchor="middle" family="微软雅黑" size="16px" weight="400" font-style="" opacity="1" y="6" transform="rotate(0)"><tspan id="SvgjsTspan2220" dy="20" x="64.5"><tspan id="SvgjsTspan2221" style="text-decoration:;">service.rs</tspan></tspan></text></g></g><g id="SvgjsG2222" transform="translate(615.4124908447266,457.0951059872401)"><path id="SvgjsPath2223" d="M 0 0L 129 0L 129 40L 0 40Z" stroke="none" fill="none"></path><g id="SvgjsG2224"><text id="SvgjsText2225" font-family="微软雅黑" text-anchor="middle" font-size="16px" width="129px" fill="#000000" font-weight="400" align="middle" lineHeight="125%" anchor="middle" family="微软雅黑" size="16px" weight="400" font-style="" opacity="1" y="6" transform="rotate(0)"><tspan id="SvgjsTspan2226" dy="20" x="64.5"><tspan id="SvgjsTspan2227" style="text-decoration:;">model.rs</tspan></tspan></text></g></g><g id="SvgjsG2228" transform="translate(615.4124908447266,597.0018817193198)"><path id="SvgjsPath2229" d="M 0 0L 129 0L 129 40L 0 40Z" stroke="none" fill="none"></path><g id="SvgjsG2230"><text id="SvgjsText2231" font-family="微软雅黑" text-anchor="middle" font-size="16px" width="129px" fill="#000000" font-weight="400" align="middle" lineHeight="125%" anchor="middle" family="微软雅黑" size="16px" weight="400" font-style="" opacity="1" y="6" transform="rotate(0)"><tspan id="SvgjsTspan2232" dy="20" x="64.5"><tspan id="SvgjsTspan2233" style="text-decoration:;">storage.rs</tspan></tspan></text></g></g><g id="SvgjsG2234" transform="translate(461.91249084472656,598.5018817193198)"><path id="SvgjsPath2235" d="M 0 0L 112 0L 112 37L 0 37Z" stroke="rgba(33,41,48,1)" stroke-width="2" fill-opacity="1" fill="#ffffff"></path><g id="SvgjsG2236"><text id="SvgjsText2237" font-family="微软雅黑" text-anchor="middle" font-size="13px" width="92px" fill="#323232" font-weight="400" align="middle" lineHeight="125%" anchor="middle" family="微软雅黑" size="13px" weight="400" font-style="" opacity="1" y="7.875" transform="rotate(0)"><tspan id="SvgjsTspan2238" dy="16" x="56"><tspan id="SvgjsTspan2239" style="text-decoration:;">文件读写</tspan></tspan></text></g></g><g id="SvgjsG2240" transform="translate(306.41249084472656,598.5018817193198)"><path id="SvgjsPath2241" d="M 0 0L 112 0L 112 37L 0 37Z" stroke="rgba(33,41,48,1)" stroke-width="2" fill-opacity="1" fill="#ffffff"></path><g id="SvgjsG2242"><text id="SvgjsText2243" font-family="微软雅黑" text-anchor="middle" font-size="13px" width="92px" fill="#323232" font-weight="400" align="middle" lineHeight="125%" anchor="middle" family="微软雅黑" size="13px" weight="400" font-style="" opacity="1" y="7.875" transform="rotate(0)"><tspan id="SvgjsTspan2244" dy="16" x="56"><tspan id="SvgjsTspan2245" style="text-decoration:;">ORM</tspan></tspan></text></g></g><g id="SvgjsG2246" transform="translate(56.012481689453125,54.316539488027956)"><path id="SvgjsPath2247" d="M 0 0L 855 0L 855 53.86047949304657L 0 53.86047949304657Z" stroke="rgba(33,41,48,1)" stroke-width="2" fill-opacity="1" fill="#f6bbdb"></path><g id="SvgjsG2248"><text id="SvgjsText2249" font-family="微软雅黑" text-anchor="middle" font-size="30px" width="835px" fill="#314aa4" font-weight="400" align="middle" lineHeight="125%" anchor="middle" family="微软雅黑" size="30px" weight="400" font-style="" opacity="1" y="1.1802397465232843" transform="rotate(0)"><tspan id="SvgjsTspan2250" dy="37" x="427.5"><tspan id="SvgjsTspan2251" style="text-decoration:;">500行代码学会Rust教程: https://github.com/cuppar/rtd</tspan></tspan></text></g></g><g id="SvgjsG2252" transform="translate(862.0124816894531,25.00188171931984)"><path id="SvgjsPath2253" d="M 0 35C 0 -11.666666666666666 70 -11.666666666666666 70 35C 70 81.66666666666667 0 81.66666666666667 0 35Z" stroke="rgba(33,41,48,1)" stroke-width="2" fill-opacity="1" fill="#b7eaeb"></path><g id="SvgjsG2254"><text id="SvgjsText2255" font-family="微软雅黑" text-anchor="middle" font-size="20px" width="50px" fill="#000000" font-weight="400" align="middle" lineHeight="125%" anchor="middle" family="微软雅黑" size="20px" weight="400" font-style="" opacity="1" y="4.5" transform="rotate(0)"><tspan id="SvgjsTspan2256" dy="25" x="35"><tspan id="SvgjsTspan2257" style="text-decoration:;">求</tspan></tspan><tspan id="SvgjsTspan2258" dy="25" x="35"><tspan id="SvgjsTspan2259" style="text-decoration:;">Star!</tspan></tspan></text></g></g><g id="SvgjsG2260" transform="translate(25.012481689453125,25.00188171931984)"><path id="SvgjsPath2261" d="M 0 35C 0 -11.666666666666666 70 -11.666666666666666 70 35C 70 81.66666666666667 0 81.66666666666667 0 35Z" stroke="rgba(33,41,48,1)" stroke-width="2" fill-opacity="1" fill="#b7eaeb"></path><g id="SvgjsG2262"><text id="SvgjsText2263" font-family="微软雅黑" text-anchor="middle" font-size="20px" width="50px" fill="#000000" font-weight="400" align="middle" lineHeight="125%" anchor="middle" family="微软雅黑" size="20px" weight="400" font-style="" opacity="1" y="4.5" transform="rotate(0)"><tspan id="SvgjsTspan2264" dy="25" x="35"><tspan id="SvgjsTspan2265" style="text-decoration:;">中英</tspan></tspan><tspan id="SvgjsTspan2266" dy="25" x="35"><tspan id="SvgjsTspan2267" style="text-decoration:;">双语</tspan></tspan></text></g></g></svg>